<svg width="145" height="32" viewBox="0 0 145 32" fill="none" xmlns="http://www.w3.org/2000/svg">
<g clip-path="url(#clip0_10557_104767)">
<g filter="url(#filter0_ddii_10557_104767)">
<g clip-path="url(#clip1_10557_104767)">
<rect x="0.824219" y="2" width="28" height="28" rx="8" fill="#1D293D"/>
<rect x="0.824219" y="2" width="28" height="28" rx="8" fill="url(#paint0_linear_10557_104767)" fill-opacity="0.2"/>
<g filter="url(#filter1_dddd_10557_104767)">
<path fill-rule="evenodd" clip-rule="evenodd" d="M20.609 12.6457C20.6064 13.2137 18.2407 13.8936 15.3045 13.8936C12.3665 13.8936 10 13.2142 10 12.6457V15.7653C10 16.3415 12.3665 17.0132 15.3045 17.0132C18.2433 17.0132 20.609 16.3415 20.609 15.7653V12.6457ZM15.3045 17.637C18.2407 17.637 20.6064 16.9571 20.609 16.3891V19.5087C20.609 20.0742 18.2433 20.7566 15.3045 20.7566C12.3665 20.7566 10 20.0742 10 19.5087V16.3891C10 16.9575 12.3665 17.637 15.3045 17.637ZM20.609 20.1324C20.609 20.6979 18.2433 21.3804 15.3045 21.3804C12.3665 21.3804 10 20.6979 10 20.1324V23.2521C10 23.8176 12.3665 24.5 15.3045 24.5C18.2433 24.5 20.609 23.8176 20.609 23.2521V20.1324ZM20.609 10.6302C20.609 10.3312 20.4566 10.0527 20.2047 9.89138L15.9058 7.13851C15.6238 6.9579 15.2635 6.95361 14.9773 7.12746L10.4219 9.89399C10.16 10.0531 10 10.3374 10 10.6439V12.0219C10 12.4957 12.3665 13.2694 15.3045 13.2694C18.2433 13.2694 20.609 12.4957 20.609 12.0219V10.6302Z" fill="url(#paint1_linear_10557_104767)" shape-rendering="crispEdges"/>
<path fill-rule="evenodd" clip-rule="evenodd" d="M20.609 12.6457C20.6064 13.2137 18.2407 13.8936 15.3045 13.8936C12.3665 13.8936 10 13.2142 10 12.6457V15.7653C10 16.3415 12.3665 17.0132 15.3045 17.0132C18.2433 17.0132 20.609 16.3415 20.609 15.7653V12.6457ZM15.3045 17.637C18.2407 17.637 20.6064 16.9571 20.609 16.3891V19.5087C20.609 20.0742 18.2433 20.7566 15.3045 20.7566C12.3665 20.7566 10 20.0742 10 19.5087V16.3891C10 16.9575 12.3665 17.637 15.3045 17.637ZM20.609 20.1324C20.609 20.6979 18.2433 21.3804 15.3045 21.3804C12.3665 21.3804 10 20.6979 10 20.1324V23.2521C10 23.8176 12.3665 24.5 15.3045 24.5C18.2433 24.5 20.609 23.8176 20.609 23.2521V20.1324ZM20.609 10.6302C20.609 10.3312 20.4566 10.0527 20.2047 9.89138L15.9058 7.13851C15.6238 6.9579 15.2635 6.95361 14.9773 7.12746L10.4219 9.89399C10.16 10.0531 10 10.3374 10 10.6439V12.0219C10 12.4957 12.3665 13.2694 15.3045 13.2694C18.2433 13.2694 20.609 12.4957 20.609 12.0219V10.6302Z" fill="white" fill-opacity="0.1" shape-rendering="crispEdges"/>
<path d="M20.459 23.252C20.459 23.2683 20.4499 23.305 20.3936 23.3633C20.338 23.4207 20.2487 23.4858 20.1221 23.5537C19.8697 23.6889 19.4955 23.8233 19.0225 23.9424C18.0774 24.1802 16.7636 24.3496 15.3047 24.3496C13.8461 24.3496 12.5321 24.1802 11.5869 23.9424C11.1134 23.8232 10.7388 23.689 10.4863 23.5537C10.3597 23.4858 10.2704 23.4207 10.2148 23.3633C10.1587 23.3052 10.1504 23.2682 10.1504 23.252V20.5791C10.2086 20.6203 10.2737 20.6602 10.3447 20.6982C10.6277 20.8499 11.0285 20.9921 11.5137 21.1143C12.4862 21.359 13.8253 21.5303 15.3047 21.5303C16.7845 21.5303 18.1233 21.359 19.0957 21.1143C19.5808 20.9922 19.9818 20.8499 20.2646 20.6982C20.3356 20.6602 20.4008 20.6203 20.459 20.5791V23.252ZM20.459 19.5088C20.4589 19.5252 20.4499 19.5619 20.3936 19.6201C20.338 19.6775 20.2487 19.7417 20.1221 19.8096C19.8697 19.9448 19.4958 20.0801 19.0225 20.1992C18.0774 20.4371 16.7636 20.6064 15.3047 20.6064C13.8461 20.6064 12.5321 20.4371 11.5869 20.1992C11.1134 20.0801 10.7388 19.9449 10.4863 19.8096C10.3599 19.7418 10.2703 19.6774 10.2148 19.6201C10.1588 19.5621 10.1504 19.5251 10.1504 19.5088V16.8369C10.2086 16.8781 10.2738 16.918 10.3447 16.9561C10.6277 17.1079 11.0285 17.2502 11.5137 17.3721C12.4862 17.6164 13.8253 17.7871 15.3047 17.7871C16.7831 17.7871 18.1213 17.6155 19.0938 17.3711C19.5787 17.2492 19.9795 17.1078 20.2627 16.9561C20.3345 16.9176 20.4002 16.8767 20.459 16.835V19.5088ZM20.459 15.7656C20.4589 15.7842 20.4494 15.8226 20.3936 15.8809C20.3381 15.9387 20.2486 16.0032 20.1221 16.0713C19.8698 16.2069 19.4958 16.3415 19.0225 16.46C18.0775 16.6965 16.7638 16.8633 15.3047 16.8633C13.8459 16.8633 12.532 16.6965 11.5869 16.46C11.1133 16.3414 10.7387 16.207 10.4863 16.0713C10.3601 16.0034 10.2713 15.9386 10.2158 15.8809C10.16 15.8226 10.1505 15.7842 10.1504 15.7656V13.0938C10.2086 13.135 10.2738 13.1748 10.3447 13.2129C10.6277 13.3647 11.0286 13.506 11.5137 13.6279C12.4862 13.8723 13.8253 14.0439 15.3047 14.0439C16.7831 14.0439 18.1213 13.8723 19.0938 13.6279C19.5787 13.506 19.9795 13.3646 20.2627 13.2129C20.3345 13.1744 20.4002 13.1335 20.459 13.0918V15.7656ZM15.0547 7.25586C15.292 7.11173 15.5914 7.11491 15.8252 7.26465L20.124 10.0176C20.3327 10.1512 20.4589 10.3821 20.459 10.6299V12.0215C20.4588 12.0215 20.4556 12.0486 20.3984 12.1025C20.3421 12.1557 20.2516 12.2169 20.124 12.2832C19.8699 12.4153 19.4941 12.5539 19.0205 12.6787C18.075 12.9279 16.7618 13.1191 15.3047 13.1191C13.848 13.1191 12.5346 12.9279 11.5889 12.6787C11.1152 12.5539 10.7386 12.4153 10.4844 12.2832C10.357 12.2169 10.2662 12.1556 10.21 12.1025C10.1534 12.0491 10.1506 12.0218 10.1504 12.0215V10.6436C10.1505 10.3896 10.2829 10.1543 10.5 10.0225L15.0547 7.25586Z" stroke="url(#paint2_linear_10557_104767)" stroke-width="0.3" shape-rendering="crispEdges"/>
</g>
</g>
</g>
<path d="M59.5938 11.937C61.0227 11.9371 62.1863 12.2764 63.085 12.9556C63.9843 13.6348 64.4346 14.7104 64.4346 16.1821V23.9438H61.9053V22.6831C61.006 23.718 59.7538 24.2358 58.1484 24.2358C57.0888 24.2358 56.1498 23.8955 55.3311 23.2163C54.5123 22.5209 54.1025 21.5669 54.1025 20.354C54.1026 19.1089 54.504 18.163 55.3066 17.5161C56.1255 16.8692 57.0728 16.5454 58.1484 16.5454C59.802 16.5454 61.0544 17.0469 61.9053 18.0493V16.3032C61.9053 15.624 61.6563 15.0898 61.1582 14.7017C60.6607 14.3138 60.0022 14.1196 59.1836 14.1196C57.8834 14.1197 56.7355 14.6129 55.7402 15.5991L54.7051 13.8286C56.0216 12.5674 57.6512 11.937 59.5938 11.937ZM93.915 11.937C95.6331 11.937 97.014 12.5352 98.0576 13.7319C99.1168 14.9286 99.6465 16.4573 99.6465 18.3169V18.9233H90.6641C90.7605 19.8449 91.1379 20.6126 91.7959 21.2271C92.454 21.8415 93.3128 22.1489 94.3721 22.1489C94.9665 22.1489 95.5604 22.0355 96.1543 21.8091C96.7645 21.5827 97.2707 21.268 97.6719 20.8638L98.8281 22.5376C97.6561 23.6696 96.0818 24.2358 94.1074 24.2358C92.3417 24.2358 90.8808 23.6694 89.7246 22.5376C88.5847 21.3894 88.0146 19.9011 88.0146 18.0737C88.0147 16.3596 88.569 14.9125 89.6768 13.7319C90.8003 12.5352 92.2133 11.937 93.915 11.937ZM48.1611 18.9956V7.76416H50.9785V23.9448H48.2568L39.876 12.3979V23.9448H37.0586V7.76416H39.9482L48.1611 18.9956ZM81.6328 11.937C83.8638 11.9372 84.9794 13.1172 84.9795 15.478V23.9438H82.4512V16.3032C82.4512 14.8964 81.817 14.193 80.5488 14.1929C80.0192 14.1929 79.5044 14.3466 79.0068 14.6538C78.509 14.961 78.1238 15.3244 77.8506 15.7446V23.9438H75.3223V16.3032C75.3223 14.8963 74.6803 14.1929 73.3955 14.1929C72.8817 14.1929 72.3763 14.3467 71.8789 14.6538C71.3971 14.9611 71.0111 15.3324 70.7227 15.769V23.9438H68.1943V12.228H70.7227V13.8286C71.0111 13.392 71.5098 12.9712 72.2158 12.5669C72.9387 12.1465 73.7011 11.937 74.5039 11.937C76.1896 11.9371 77.2487 12.6562 77.6826 14.0952C78.0517 13.5131 78.598 13.0118 79.3203 12.5913C80.0427 12.1547 80.8141 11.937 81.6328 11.937ZM59.1357 18.2925C58.4133 18.2925 57.8191 18.4864 57.3535 18.8745C56.8881 19.2626 56.6553 19.7722 56.6553 20.4028C56.6553 21.0334 56.888 21.5431 57.3535 21.9312C57.8191 22.3031 58.4133 22.4887 59.1357 22.4888C60.404 22.4888 61.3271 22.0844 61.9053 21.2759V19.5054C61.3271 18.6967 60.4041 18.2925 59.1357 18.2925ZM93.915 14.0229C92.9194 14.023 92.1409 14.3385 91.5791 14.9692C91.0169 15.5836 90.7039 16.3029 90.6396 17.1274H97.1904C97.1582 16.3191 96.8613 15.5998 96.2998 14.9692C95.7538 14.3385 94.9586 14.0229 93.915 14.0229Z" fill="#00A6F4"/>
<path d="M59.5938 11.937C61.0227 11.9371 62.1863 12.2764 63.085 12.9556C63.9843 13.6348 64.4346 14.7104 64.4346 16.1821V23.9438H61.9053V22.6831C61.006 23.718 59.7538 24.2358 58.1484 24.2358C57.0888 24.2358 56.1498 23.8955 55.3311 23.2163C54.5123 22.5209 54.1025 21.5669 54.1025 20.354C54.1026 19.1089 54.504 18.163 55.3066 17.5161C56.1255 16.8692 57.0728 16.5454 58.1484 16.5454C59.802 16.5454 61.0544 17.0469 61.9053 18.0493V16.3032C61.9053 15.624 61.6563 15.0898 61.1582 14.7017C60.6607 14.3138 60.0022 14.1196 59.1836 14.1196C57.8834 14.1197 56.7355 14.6129 55.7402 15.5991L54.7051 13.8286C56.0216 12.5674 57.6512 11.937 59.5938 11.937ZM93.915 11.937C95.6331 11.937 97.014 12.5352 98.0576 13.7319C99.1168 14.9286 99.6465 16.4573 99.6465 18.3169V18.9233H90.6641C90.7605 19.8449 91.1379 20.6126 91.7959 21.2271C92.454 21.8415 93.3128 22.1489 94.3721 22.1489C94.9665 22.1489 95.5604 22.0355 96.1543 21.8091C96.7645 21.5827 97.2707 21.268 97.6719 20.8638L98.8281 22.5376C97.6561 23.6696 96.0818 24.2358 94.1074 24.2358C92.3417 24.2358 90.8808 23.6694 89.7246 22.5376C88.5847 21.3894 88.0146 19.9011 88.0146 18.0737C88.0147 16.3596 88.569 14.9125 89.6768 13.7319C90.8003 12.5352 92.2133 11.937 93.915 11.937ZM48.1611 18.9956V7.76416H50.9785V23.9448H48.2568L39.876 12.3979V23.9448H37.0586V7.76416H39.9482L48.1611 18.9956ZM81.6328 11.937C83.8638 11.9372 84.9794 13.1172 84.9795 15.478V23.9438H82.4512V16.3032C82.4512 14.8964 81.817 14.193 80.5488 14.1929C80.0192 14.1929 79.5044 14.3466 79.0068 14.6538C78.509 14.961 78.1238 15.3244 77.8506 15.7446V23.9438H75.3223V16.3032C75.3223 14.8963 74.6803 14.1929 73.3955 14.1929C72.8817 14.1929 72.3763 14.3467 71.8789 14.6538C71.3971 14.9611 71.0111 15.3324 70.7227 15.769V23.9438H68.1943V12.228H70.7227V13.8286C71.0111 13.392 71.5098 12.9712 72.2158 12.5669C72.9387 12.1465 73.7011 11.937 74.5039 11.937C76.1896 11.9371 77.2487 12.6562 77.6826 14.0952C78.0517 13.5131 78.598 13.0118 79.3203 12.5913C80.0427 12.1547 80.8141 11.937 81.6328 11.937ZM59.1357 18.2925C58.4133 18.2925 57.8191 18.4864 57.3535 18.8745C56.8881 19.2626 56.6553 19.7722 56.6553 20.4028C56.6553 21.0334 56.888 21.5431 57.3535 21.9312C57.8191 22.3031 58.4133 22.4887 59.1357 22.4888C60.404 22.4888 61.3271 22.0844 61.9053 21.2759V19.5054C61.3271 18.6967 60.4041 18.2925 59.1357 18.2925ZM93.915 14.0229C92.9194 14.023 92.1409 14.3385 91.5791 14.9692C91.0169 15.5836 90.7039 16.3029 90.6396 17.1274H97.1904C97.1582 16.3191 96.8613 15.5998 96.2998 14.9692C95.7538 14.3385 94.9586 14.0229 93.915 14.0229Z" fill="url(#paint3_linear_10557_104767)" fill-opacity="0.1"/>
<path d="M109.292 7.76465C111.762 7.76469 113.766 8.5062 115.306 9.98828L113.694 12.0674C112.476 10.8563 110.928 10.251 109.052 10.251C108.218 10.251 107.552 10.4342 107.055 10.8008C106.573 11.1514 106.333 11.6298 106.333 12.2354C106.333 12.6336 106.501 12.9684 106.838 13.2393C107.191 13.5101 107.641 13.7329 108.186 13.9082C108.731 14.0675 109.332 14.2274 109.989 14.3867C110.663 14.5461 111.329 14.7453 111.986 14.9844C112.66 15.2075 113.269 15.4857 113.814 15.8203C114.36 16.1549 114.801 16.6174 115.138 17.207C115.491 17.7966 115.667 18.4979 115.667 19.3105C115.667 20.7447 115.146 21.9244 114.104 22.8486C113.061 23.773 111.513 24.2354 109.46 24.2354C106.702 24.2353 104.529 23.3903 102.941 21.7012L104.505 19.5498C105.884 21.0159 107.576 21.7489 109.58 21.749C110.655 21.749 111.457 21.5338 111.986 21.1035C112.532 20.6733 112.804 20.1637 112.804 19.5742C112.804 18.9686 112.483 18.4902 111.842 18.1396C111.2 17.7732 110.422 17.4864 109.508 17.2793C108.594 17.0722 107.672 16.8249 106.742 16.5381C105.828 16.2513 105.05 15.7653 104.408 15.0801C103.767 14.3948 103.446 13.5094 103.446 12.4258C103.446 11.0874 103.983 9.97992 105.058 9.10352C106.148 8.21106 107.56 7.76465 109.292 7.76465ZM136.479 12.1143C138.292 12.1143 139.744 12.696 140.834 13.8594C141.925 15.0227 142.47 16.457 142.47 18.1621C142.47 19.8832 141.925 21.3259 140.834 22.4893C139.744 23.6525 138.292 24.2334 136.479 24.2334C134.684 24.2333 133.24 23.6525 132.149 22.4893C131.059 21.3099 130.514 19.8672 130.514 18.1621C130.514 16.457 131.059 15.0227 132.149 13.8594C133.24 12.696 134.683 12.1143 136.479 12.1143ZM121.192 23.9482H118.667V12.4014H121.192V23.9482ZM127.477 23.9473H124.951V8.00293H127.477V23.9473ZM136.479 14.3369C135.454 14.337 134.636 14.7119 134.026 15.4609C133.433 16.194 133.136 17.0944 133.136 18.1621C133.136 19.2457 133.433 20.1622 134.026 20.9111C134.636 21.6441 135.454 22.0107 136.479 22.0107C137.522 22.0107 138.34 21.6441 138.934 20.9111C139.543 20.1622 139.848 19.2457 139.848 18.1621C139.848 17.0944 139.543 16.194 138.934 15.4609C138.34 14.7119 137.522 14.3369 136.479 14.3369ZM119.918 7.88379C120.351 7.88379 120.719 8.03517 121.024 8.33789C121.329 8.64068 121.481 9.00724 121.481 9.4375C121.481 9.86779 121.329 10.2343 121.024 10.5371C120.719 10.8399 120.351 10.9912 119.918 10.9912C119.501 10.9911 119.132 10.8398 118.812 10.5371C118.507 10.2344 118.354 9.86766 118.354 9.4375C118.355 9.00734 118.507 8.64063 118.812 8.33789C119.132 8.03517 119.501 7.88387 119.918 7.88379Z" fill="#1D293D"/>
<path d="M109.292 7.76465C111.762 7.76469 113.766 8.5062 115.306 9.98828L113.694 12.0674C112.476 10.8563 110.928 10.251 109.052 10.251C108.218 10.251 107.552 10.4342 107.055 10.8008C106.573 11.1514 106.333 11.6298 106.333 12.2354C106.333 12.6336 106.501 12.9684 106.838 13.2393C107.191 13.5101 107.641 13.7329 108.186 13.9082C108.731 14.0675 109.332 14.2274 109.989 14.3867C110.663 14.5461 111.329 14.7453 111.986 14.9844C112.66 15.2075 113.269 15.4857 113.814 15.8203C114.36 16.1549 114.801 16.6174 115.138 17.207C115.491 17.7966 115.667 18.4979 115.667 19.3105C115.667 20.7447 115.146 21.9244 114.104 22.8486C113.061 23.773 111.513 24.2354 109.46 24.2354C106.702 24.2353 104.529 23.3903 102.941 21.7012L104.505 19.5498C105.884 21.0159 107.576 21.7489 109.58 21.749C110.655 21.749 111.457 21.5338 111.986 21.1035C112.532 20.6733 112.804 20.1637 112.804 19.5742C112.804 18.9686 112.483 18.4902 111.842 18.1396C111.2 17.7732 110.422 17.4864 109.508 17.2793C108.594 17.0722 107.672 16.8249 106.742 16.5381C105.828 16.2513 105.05 15.7653 104.408 15.0801C103.767 14.3948 103.446 13.5094 103.446 12.4258C103.446 11.0874 103.983 9.97992 105.058 9.10352C106.148 8.21106 107.56 7.76465 109.292 7.76465ZM136.479 12.1143C138.292 12.1143 139.744 12.696 140.834 13.8594C141.925 15.0227 142.47 16.457 142.47 18.1621C142.47 19.8832 141.925 21.3259 140.834 22.4893C139.744 23.6525 138.292 24.2334 136.479 24.2334C134.684 24.2333 133.24 23.6525 132.149 22.4893C131.059 21.3099 130.514 19.8672 130.514 18.1621C130.514 16.457 131.059 15.0227 132.149 13.8594C133.24 12.696 134.683 12.1143 136.479 12.1143ZM121.192 23.9482H118.667V12.4014H121.192V23.9482ZM127.477 23.9473H124.951V8.00293H127.477V23.9473ZM136.479 14.3369C135.454 14.337 134.636 14.7119 134.026 15.4609C133.433 16.194 133.136 17.0944 133.136 18.1621C133.136 19.2457 133.433 20.1622 134.026 20.9111C134.636 21.6441 135.454 22.0107 136.479 22.0107C137.522 22.0107 138.34 21.6441 138.934 20.9111C139.543 20.1622 139.848 19.2457 139.848 18.1621C139.848 17.0944 139.543 16.194 138.934 15.4609C138.34 14.7119 137.522 14.3369 136.479 14.3369ZM119.918 7.88379C120.351 7.88379 120.719 8.03517 121.024 8.33789C121.329 8.64068 121.481 9.00724 121.481 9.4375C121.481 9.86779 121.329 10.2343 121.024 10.5371C120.719 10.8399 120.351 10.9912 119.918 10.9912C119.501 10.9911 119.132 10.8398 118.812 10.5371C118.507 10.2344 118.354 9.86766 118.354 9.4375C118.355 9.00734 118.507 8.64063 118.812 8.33789C119.132 8.03517 119.501 7.88387 119.918 7.88379Z" fill="url(#paint4_linear_10557_104767)" fill-opacity="0.1"/>
</g>
<defs>
<filter id="filter0_ddii_10557_104767" x="-4.17578" y="-2" width="38" height="38" filterUnits="userSpaceOnUse" color-interpolation-filters="sRGB">
<feFlood flood-opacity="0" result="BackgroundImageFix"/>
<feColorMatrix in="SourceAlpha" type="matrix" values="0 0 0 0 0 0 0 0 0 0 0 0 0 0 0 0 0 0 127 0" result="hardAlpha"/>
<feMorphology radius="1" operator="dilate" in="SourceAlpha" result="effect1_dropShadow_10557_104767"/>
<feOffset/>
<feComposite in2="hardAlpha" operator="out"/>
<feColorMatrix type="matrix" values="0 0 0 0 0.113725 0 0 0 0 0.160784 0 0 0 0 0.239216 0 0 0 1 0"/>
<feBlend mode="normal" in2="BackgroundImageFix" result="effect1_dropShadow_10557_104767"/>
<feColorMatrix in="SourceAlpha" type="matrix" values="0 0 0 0 0 0 0 0 0 0 0 0 0 0 0 0 0 0 127 0" result="hardAlpha"/>
<feOffset dy="1"/>
<feGaussianBlur stdDeviation="2.5"/>
<feColorMatrix type="matrix" values="0 0 0 0 0.00784314 0 0 0 0 0.0235294 0 0 0 0 0.0941176 0 0 0 0.1 0"/>
<feBlend mode="normal" in2="effect1_dropShadow_10557_104767" result="effect2_dropShadow_10557_104767"/>
<feBlend mode="normal" in="SourceGraphic" in2="effect2_dropShadow_10557_104767" result="shape"/>
<feColorMatrix in="SourceAlpha" type="matrix" values="0 0 0 0 0 0 0 0 0 0 0 0 0 0 0 0 0 0 127 0" result="hardAlpha"/>
<feOffset dy="-0.5"/>
<feGaussianBlur stdDeviation="0.5"/>
<feComposite in2="hardAlpha" operator="arithmetic" k2="-1" k3="1"/>
<feColorMatrix type="matrix" values="0 0 0 0 1 0 0 0 0 1 0 0 0 0 1 0 0 0 0.3 0"/>
<feBlend mode="normal" in2="shape" result="effect3_innerShadow_10557_104767"/>
<feColorMatrix in="SourceAlpha" type="matrix" values="0 0 0 0 0 0 0 0 0 0 0 0 0 0 0 0 0 0 127 0" result="hardAlpha"/>
<feOffset dy="-0.5"/>
<feGaussianBlur stdDeviation="0.5"/>
<feComposite in2="hardAlpha" operator="arithmetic" k2="-1" k3="1"/>
<feColorMatrix type="matrix" values="0 0 0 0 1 0 0 0 0 1 0 0 0 0 1 0 0 0 0.3 0"/>
<feBlend mode="normal" in2="effect3_innerShadow_10557_104767" result="effect4_innerShadow_10557_104767"/>
</filter>
<filter id="filter1_dddd_10557_104767" x="3" y="5" width="24.6094" height="31.5" filterUnits="userSpaceOnUse" color-interpolation-filters="sRGB">
<feFlood flood-opacity="0" result="BackgroundImageFix"/>
<feColorMatrix in="SourceAlpha" type="matrix" values="0 0 0 0 0 0 0 0 0 0 0 0 0 0 0 0 0 0 127 0" result="hardAlpha"/>
<feOffset dy="0.5"/>
<feGaussianBlur stdDeviation="0.5"/>
<feComposite in2="hardAlpha" operator="out"/>
<feColorMatrix type="matrix" values="0 0 0 0 0.00784314 0 0 0 0 0.0235294 0 0 0 0 0.0941176 0 0 0 0.05 0"/>
<feBlend mode="color-burn" in2="BackgroundImageFix" result="effect1_dropShadow_10557_104767"/>
<feColorMatrix in="SourceAlpha" type="matrix" values="0 0 0 0 0 0 0 0 0 0 0 0 0 0 0 0 0 0 127 0" result="hardAlpha"/>
<feOffset dy="1"/>
<feGaussianBlur stdDeviation="1"/>
<feComposite in2="hardAlpha" operator="out"/>
<feColorMatrix type="matrix" values="0 0 0 0 0.00784314 0 0 0 0 0.0235294 0 0 0 0 0.0941176 0 0 0 0.1 0"/>
<feBlend mode="color-burn" in2="effect1_dropShadow_10557_104767" result="effect2_dropShadow_10557_104767"/>
<feColorMatrix in="SourceAlpha" type="matrix" values="0 0 0 0 0 0 0 0 0 0 0 0 0 0 0 0 0 0 127 0" result="hardAlpha"/>
<feOffset dx="-1" dy="3"/>
<feGaussianBlur stdDeviation="2"/>
<feComposite in2="hardAlpha" operator="out"/>
<feColorMatrix type="matrix" values="0 0 0 0 0.00784314 0 0 0 0 0.0235294 0 0 0 0 0.0941176 0 0 0 0.05 0"/>
<feBlend mode="plus-darker" in2="effect2_dropShadow_10557_104767" result="effect3_dropShadow_10557_104767"/>
<feColorMatrix in="SourceAlpha" type="matrix" values="0 0 0 0 0 0 0 0 0 0 0 0 0 0 0 0 0 0 127 0" result="hardAlpha"/>
<feOffset dy="5"/>
<feGaussianBlur stdDeviation="3.5"/>
<feComposite in2="hardAlpha" operator="out"/>
<feColorMatrix type="matrix" values="0 0 0 0 0.00784314 0 0 0 0 0.0235294 0 0 0 0 0.0941176 0 0 0 0.05 0"/>
<feBlend mode="plus-darker" in2="effect3_dropShadow_10557_104767" result="effect4_dropShadow_10557_104767"/>
<feBlend mode="normal" in="SourceGraphic" in2="effect4_dropShadow_10557_104767" result="shape"/>
</filter>
<linearGradient id="paint0_linear_10557_104767" x1="14.8242" y1="2" x2="14.8242" y2="30" gradientUnits="userSpaceOnUse">
<stop stop-color="white"/>
<stop offset="1" stop-color="white" stop-opacity="0.05"/>
</linearGradient>
<linearGradient id="paint1_linear_10557_104767" x1="15.4553" y1="7" x2="15.4553" y2="24.6537" gradientUnits="userSpaceOnUse">
<stop stop-color="white"/>
<stop offset="1" stop-color="white" stop-opacity="0.6"/>
</linearGradient>
<linearGradient id="paint2_linear_10557_104767" x1="15.3045" y1="7" x2="15.3045" y2="24.5" gradientUnits="userSpaceOnUse">
<stop stop-color="white" stop-opacity="0"/>
<stop offset="1" stop-color="white"/>
</linearGradient>
<linearGradient id="paint3_linear_10557_104767" x1="45.86" y1="7.24942" x2="50.937" y2="33.0995" gradientUnits="userSpaceOnUse">
<stop stop-color="white"/>
<stop offset="1" stop-color="white" stop-opacity="0"/>
</linearGradient>
<linearGradient id="paint4_linear_10557_104767" x1="108.5" y1="7.24994" x2="116.112" y2="31.7286" gradientUnits="userSpaceOnUse">
<stop stop-color="white"/>
<stop offset="1" stop-color="white" stop-opacity="0"/>
</linearGradient>
<clipPath id="clip0_10557_104767">
<rect width="145" height="32" fill="white"/>
</clipPath>
<clipPath id="clip1_10557_104767">
<rect x="0.824219" y="2" width="28" height="28" rx="8" fill="white"/>
</clipPath>
</defs>
</svg>
