<svg width="110" height="32" viewBox="35 0 110 32" fill="none" xmlns="http://www.w3.org/2000/svg">
<path d="M59.5938 11.937C61.0227 11.9371 62.1863 12.2764 63.085 12.9556C63.9843 13.6348 64.4346 14.7104 64.4346 16.1821V23.9438H61.9053V22.6831C61.006 23.718 59.7538 24.2358 58.1484 24.2358C57.0888 24.2358 56.1498 23.8955 55.3311 23.2163C54.5123 22.5209 54.1025 21.5669 54.1025 20.354C54.1026 19.1089 54.504 18.163 55.3066 17.5161C56.1255 16.8692 57.0728 16.5454 58.1484 16.5454C59.802 16.5454 61.0544 17.0469 61.9053 18.0493V16.3032C61.9053 15.624 61.6563 15.0898 61.1582 14.7017C60.6607 14.3138 60.0022 14.1196 59.1836 14.1196C57.8834 14.1197 56.7355 14.6129 55.7402 15.5991L54.7051 13.8286C56.0216 12.5674 57.6512 11.937 59.5938 11.937ZM93.915 11.937C95.6331 11.937 97.014 12.5352 98.0576 13.7319C99.1168 14.9286 99.6465 16.4573 99.6465 18.3169V18.9233H90.6641C90.7605 19.8449 91.1379 20.6126 91.7959 21.2271C92.454 21.8415 93.3128 22.1489 94.3721 22.1489C94.9665 22.1489 95.5604 22.0355 96.1543 21.8091C96.7645 21.5827 97.2707 21.268 97.6719 20.8638L98.8281 22.5376C97.6561 23.6696 96.0818 24.2358 94.1074 24.2358C92.3417 24.2358 90.8808 23.6694 89.7246 22.5376C88.5847 21.3894 88.0146 19.9011 88.0146 18.0737C88.0147 16.3596 88.569 14.9125 89.6768 13.7319C90.8003 12.5352 92.2133 11.937 93.915 11.937ZM48.1611 18.9956V7.76416H50.9785V23.9448H48.2568L39.876 12.3979V23.9448H37.0586V7.76416H39.9482L48.1611 18.9956ZM81.6328 11.937C83.8638 11.9372 84.9794 13.1172 84.9795 15.478V23.9438H82.4512V16.3032C82.4512 14.8964 81.817 14.193 80.5488 14.1929C80.0192 14.1929 79.5044 14.3466 79.0068 14.6538C78.509 14.961 78.1238 15.3244 77.8506 15.7446V23.9438H75.3223V16.3032C75.3223 14.8963 74.6803 14.1929 73.3955 14.1929C72.8817 14.1929 72.3763 14.3467 71.8789 14.6538C71.3971 14.9611 71.0111 15.3324 70.7227 15.769V23.9438H68.1943V12.228H70.7227V13.8286C71.0111 13.392 71.5098 12.9712 72.2158 12.5669C72.9387 12.1465 73.7011 11.937 74.5039 11.937C76.1896 11.9371 77.2487 12.6562 77.6826 14.0952C78.0517 13.5131 78.598 13.0118 79.3203 12.5913C80.0427 12.1547 80.8141 11.937 81.6328 11.937ZM59.1357 18.2925C58.4133 18.2925 57.8191 18.4864 57.3535 18.8745C56.8881 19.2626 56.6553 19.7722 56.6553 20.4028C56.6553 21.0334 56.888 21.5431 57.3535 21.9312C57.8191 22.3031 58.4133 22.4887 59.1357 22.4888C60.404 22.4888 61.3271 22.0844 61.9053 21.2759V19.5054C61.3271 18.6967 60.4041 18.2925 59.1357 18.2925ZM93.915 14.0229C92.9194 14.023 92.1409 14.3385 91.5791 14.9692C91.0169 15.5836 90.7039 16.3029 90.6396 17.1274H97.1904C97.1582 16.3191 96.8613 15.5998 96.2998 14.9692C95.7538 14.3385 94.9586 14.0229 93.915 14.0229Z" fill="#00A6F4"/>
<path d="M109.292 7.76465C111.762 7.76469 113.766 8.5062 115.306 9.98828L113.694 12.0674C112.476 10.8563 110.928 10.251 109.052 10.251C108.218 10.251 107.552 10.4342 107.055 10.8008C106.573 11.1514 106.333 11.6298 106.333 12.2354C106.333 12.6336 106.501 12.9684 106.838 13.2393C107.191 13.5101 107.641 13.7329 108.186 13.9082C108.731 14.0675 109.332 14.2274 109.989 14.3867C110.663 14.5461 111.329 14.7453 111.986 14.9844C112.66 15.2075 113.269 15.4857 113.814 15.8203C114.36 16.1549 114.801 16.6174 115.138 17.207C115.491 17.7966 115.667 18.4979 115.667 19.3105C115.667 20.7447 115.146 21.9244 114.104 22.8486C113.061 23.773 111.513 24.2354 109.46 24.2354C106.702 24.2353 104.529 23.3903 102.941 21.7012L104.505 19.5498C105.884 21.0159 107.576 21.7489 109.58 21.749C110.655 21.749 111.457 21.5338 111.986 21.1035C112.532 20.6733 112.804 20.1637 112.804 19.5742C112.804 18.9686 112.483 18.4902 111.842 18.1396C111.2 17.7732 110.422 17.4864 109.508 17.2793C108.594 17.0722 107.672 16.8249 106.742 16.5381C105.828 16.2513 105.05 15.7653 104.408 15.0801C103.767 14.3948 103.446 13.5094 103.446 12.4258C103.446 11.0874 103.983 9.97992 105.058 9.10352C106.148 8.21106 107.56 7.76465 109.292 7.76465ZM136.479 12.1143C138.292 12.1143 139.744 12.696 140.834 13.8594C141.925 15.0227 142.47 16.457 142.47 18.1621C142.47 19.8832 141.925 21.3259 140.834 22.4893C139.744 23.6525 138.292 24.2334 136.479 24.2334C134.684 24.2333 133.24 23.6525 132.149 22.4893C131.059 21.3099 130.514 19.8672 130.514 18.1621C130.514 16.457 131.059 15.0227 132.149 13.8594C133.24 12.696 134.683 12.1143 136.479 12.1143ZM121.192 23.9482H118.667V12.4014H121.192V23.9482ZM127.477 23.9473H124.951V8.00293H127.477V23.9473ZM136.479 14.3369C135.454 14.337 134.636 14.7119 134.026 15.4609C133.433 16.194 133.136 17.0944 133.136 18.1621C133.136 19.2457 133.433 20.1622 134.026 20.9111C134.636 21.6441 135.454 22.0107 136.479 22.0107C137.522 22.0107 138.34 21.6441 138.934 20.9111C139.543 20.1622 139.848 19.2457 139.848 18.1621C139.848 17.0944 139.543 16.194 138.934 15.4609C138.34 14.7119 137.522 14.3369 136.479 14.3369ZM119.918 7.88379C120.351 7.88379 120.719 8.03517 121.024 8.33789C121.329 8.64068 121.481 9.00724 121.481 9.4375C121.481 9.86779 121.329 10.2343 121.024 10.5371C120.719 10.8399 120.351 10.9912 119.918 10.9912C119.501 10.9911 119.132 10.8398 118.812 10.5371C118.507 10.2344 118.354 9.86766 118.354 9.4375C118.355 9.00734 118.507 8.64063 118.812 8.33789C119.132 8.03517 119.501 7.88387 119.918 7.88379Z" fill="#1D293D"/>
</svg>
