<svg preserveAspectRatio="none" width="100%" height="100%" overflow="visible" style="display: block;" viewBox="0 0 75.9951 19.999" fill="none" xmlns="http://www.w3.org/2000/svg">
<g id="Name">
<path d="M27.3623 5.06641C29.0974 5.06647 30.5104 5.47906 31.6016 6.30371C32.6934 7.12845 33.2393 8.43386 33.2393 10.2207V19.6465H30.1689V18.1143C29.077 19.371 27.5568 19.999 25.6074 19.999C24.321 19.999 23.1806 19.5872 22.1865 18.7627C21.1924 17.9184 20.6954 16.7597 20.6953 15.2871C20.6953 13.7751 21.1825 12.6263 22.1572 11.8408C23.1515 11.0554 24.3014 10.6621 25.6074 10.6621C27.6151 10.6621 29.1358 11.2711 30.1689 12.4883V10.3682C30.1689 9.54357 29.8674 8.89507 29.2627 8.42383C28.6586 7.95264 27.8592 7.71686 26.8652 7.7168C25.2863 7.7168 23.8922 8.31602 22.6836 9.51367L21.4258 7.36328C23.0243 5.83171 25.0036 5.06641 27.3623 5.06641ZM69.0352 5.06641C71.1213 5.06641 72.7973 5.79305 74.0645 7.24609C75.3507 8.69918 75.9951 10.5544 75.9951 12.8125V13.5488H65.0879C65.2049 14.6679 65.663 15.6006 66.4619 16.3467C67.261 17.0928 68.3046 17.4668 69.5908 17.4668C70.3126 17.4668 71.0338 17.3286 71.7549 17.0537C72.4957 16.7789 73.1096 16.3961 73.5967 15.9053L75.001 17.9375C73.5779 19.312 71.6668 19.999 69.2695 19.999C67.1253 19.999 65.3512 19.312 63.9473 17.9375C62.5632 16.5434 61.8712 14.7372 61.8711 12.5186C61.8711 10.4373 62.5437 8.67951 63.8887 7.24609C65.2529 5.7931 66.969 5.06646 69.0352 5.06641ZM13.4805 13.6377V0H16.9014V19.6465H13.5977L3.4209 5.62598V19.6465H0V0H3.50879L13.4805 13.6377ZM54.1221 5.06641C56.8311 5.06653 58.1864 6.49961 58.1865 9.36621V19.6465H55.1162V10.3682C55.1162 8.65985 54.3458 7.80566 52.8057 7.80566C52.1625 7.80567 51.5387 7.9922 50.9346 8.36523C50.3297 8.73835 49.8621 9.17989 49.5303 9.69043V19.6465H46.46V10.3682C46.46 8.65992 45.6809 7.80573 44.1211 7.80566C43.4971 7.80566 42.8825 7.99219 42.2783 8.36523C41.6935 8.7383 41.2252 9.18967 40.875 9.71973V19.6465H37.8057V5.41992H40.875V7.36328C41.2252 6.83317 41.8304 6.32287 42.6875 5.83203C43.5653 5.32152 44.4909 5.06644 45.4658 5.06641C47.5129 5.06641 48.7993 5.93996 49.3262 7.6875C49.7743 6.98062 50.4373 6.37186 51.3145 5.86133C52.1916 5.33116 53.1279 5.06641 54.1221 5.06641ZM26.8066 12.7832C25.9294 12.7832 25.2079 13.0189 24.6426 13.4902C24.0773 13.9615 23.7949 14.5799 23.7949 15.3457C23.7949 16.1115 24.0773 16.7299 24.6426 17.2012C25.2079 17.6528 25.9294 17.8789 26.8066 17.8789C28.3464 17.8788 29.467 17.3878 30.1689 16.4062V14.2559C29.467 13.2742 28.3464 12.7833 26.8066 12.7832ZM69.0352 7.59961C67.8263 7.59966 66.8813 7.98229 66.1992 8.74805C65.5164 9.49414 65.1366 10.3678 65.0586 11.3691H73.0117C72.9727 10.3874 72.6127 9.51376 71.9307 8.74805C71.2677 7.98224 70.3023 7.59961 69.0352 7.59961Z" fill="var(--fill-0, #00A6F4)"/>
<path d="M27.3623 5.06641C29.0974 5.06647 30.5104 5.47906 31.6016 6.30371C32.6934 7.12845 33.2393 8.43386 33.2393 10.2207V19.6465H30.1689V18.1143C29.077 19.371 27.5568 19.999 25.6074 19.999C24.321 19.999 23.1806 19.5872 22.1865 18.7627C21.1924 17.9184 20.6954 16.7597 20.6953 15.2871C20.6953 13.7751 21.1825 12.6263 22.1572 11.8408C23.1515 11.0554 24.3014 10.6621 25.6074 10.6621C27.6151 10.6621 29.1358 11.2711 30.1689 12.4883V10.3682C30.1689 9.54357 29.8674 8.89507 29.2627 8.42383C28.6586 7.95264 27.8592 7.71686 26.8652 7.7168C25.2863 7.7168 23.8922 8.31602 22.6836 9.51367L21.4258 7.36328C23.0243 5.83171 25.0036 5.06641 27.3623 5.06641ZM69.0352 5.06641C71.1213 5.06641 72.7973 5.79305 74.0645 7.24609C75.3507 8.69918 75.9951 10.5544 75.9951 12.8125V13.5488H65.0879C65.2049 14.6679 65.663 15.6006 66.4619 16.3467C67.261 17.0928 68.3046 17.4668 69.5908 17.4668C70.3126 17.4668 71.0338 17.3286 71.7549 17.0537C72.4957 16.7789 73.1096 16.3961 73.5967 15.9053L75.001 17.9375C73.5779 19.312 71.6668 19.999 69.2695 19.999C67.1253 19.999 65.3512 19.312 63.9473 17.9375C62.5632 16.5434 61.8712 14.7372 61.8711 12.5186C61.8711 10.4373 62.5437 8.67951 63.8887 7.24609C65.2529 5.7931 66.969 5.06646 69.0352 5.06641ZM13.4805 13.6377V0H16.9014V19.6465H13.5977L3.4209 5.62598V19.6465H0V0H3.50879L13.4805 13.6377ZM54.1221 5.06641C56.8311 5.06653 58.1864 6.49961 58.1865 9.36621V19.6465H55.1162V10.3682C55.1162 8.65985 54.3458 7.80566 52.8057 7.80566C52.1625 7.80567 51.5387 7.9922 50.9346 8.36523C50.3297 8.73835 49.8621 9.17989 49.5303 9.69043V19.6465H46.46V10.3682C46.46 8.65992 45.6809 7.80573 44.1211 7.80566C43.4971 7.80566 42.8825 7.99219 42.2783 8.36523C41.6935 8.7383 41.2252 9.18967 40.875 9.71973V19.6465H37.8057V5.41992H40.875V7.36328C41.2252 6.83317 41.8304 6.32287 42.6875 5.83203C43.5653 5.32152 44.4909 5.06644 45.4658 5.06641C47.5129 5.06641 48.7993 5.93996 49.3262 7.6875C49.7743 6.98062 50.4373 6.37186 51.3145 5.86133C52.1916 5.33116 53.1279 5.06641 54.1221 5.06641ZM26.8066 12.7832C25.9294 12.7832 25.2079 13.0189 24.6426 13.4902C24.0773 13.9615 23.7949 14.5799 23.7949 15.3457C23.7949 16.1115 24.0773 16.7299 24.6426 17.2012C25.2079 17.6528 25.9294 17.8789 26.8066 17.8789C28.3464 17.8788 29.467 17.3878 30.1689 16.4062V14.2559C29.467 13.2742 28.3464 12.7833 26.8066 12.7832ZM69.0352 7.59961C67.8263 7.59966 66.8813 7.98229 66.1992 8.74805C65.5164 9.49414 65.1366 10.3678 65.0586 11.3691H73.0117C72.9727 10.3874 72.6127 9.51376 71.9307 8.74805C71.2677 7.98224 70.3023 7.59961 69.0352 7.59961Z" fill="url(#paint0_linear_10729_68267)" fill-opacity="0.1"/>
</g>
<defs>
<linearGradient id="paint0_linear_10729_68267" x1="10.6868" y1="-0.624969" x2="16.8507" y2="30.7609" gradientUnits="userSpaceOnUse">
<stop stop-color="white"/>
<stop offset="1" stop-color="white" stop-opacity="0"/>
</linearGradient>
</defs>
</svg>
