<svg preserveAspectRatio="none" width="100%" height="100%" overflow="visible" style="display: block;" viewBox="0 0 47.9961 19.999" fill="none" xmlns="http://www.w3.org/2000/svg">
<g id="Silo">
<path d="M7.71094 0C10.7098 3.36967e-05 13.1445 0.89965 15.0137 2.69922L13.0566 5.22461C11.577 3.75397 9.69753 3.01855 7.41895 3.01855C6.40608 3.01856 5.59761 3.24146 4.99414 3.68652C4.41003 4.11218 4.1182 4.69261 4.11816 5.42773C4.11816 5.9115 4.32276 6.31848 4.73145 6.64746C5.15995 6.97634 5.70569 7.24706 6.36719 7.45996C7.02933 7.65341 7.75953 7.84659 8.55762 8.04004C9.37568 8.23359 10.1842 8.47537 10.9824 8.76562C11.8005 9.03654 12.5399 9.37583 13.2021 9.78223C13.8642 10.1885 14.4 10.7491 14.8086 11.4648C15.2371 12.1808 15.4521 13.0327 15.4521 14.0195C15.4521 15.761 14.8185 17.1932 13.5527 18.3154C12.287 19.4377 10.4075 19.999 7.91504 19.999C4.56577 19.9989 1.92789 18.9729 0 16.9219L1.89844 14.3096C3.57285 16.0898 5.62782 16.9805 8.06152 16.9805C9.36613 16.9804 10.34 16.7187 10.9824 16.1963C11.6446 15.6739 11.9756 15.0548 11.9756 14.3389C11.9756 13.6037 11.5858 13.0233 10.8076 12.5977C10.0285 12.1526 9.08417 11.8043 7.97363 11.5527C6.86385 11.3012 5.74485 11.0006 4.61523 10.6523C3.50533 10.3041 2.56038 9.71385 1.78125 8.88184C1.0023 8.0498 0.613296 6.97579 0.613281 5.66016C0.613281 4.03472 1.26564 2.69025 2.57031 1.62598C3.89483 0.542348 5.60801 0 7.71094 0ZM40.7227 5.28125C42.923 5.28134 44.6851 5.98712 46.0088 7.39941C47.3333 8.81196 47.9961 10.5545 47.9961 12.625C47.996 14.7146 47.3332 16.4654 46.0088 17.8779C44.6851 19.2904 42.9231 19.997 40.7227 19.9971C38.5418 19.9971 36.7894 19.2905 35.4648 17.8779C34.1411 16.4461 33.4786 14.6952 33.4785 12.625C33.4785 10.5545 34.141 8.81196 35.4648 7.39941C36.7893 5.98706 38.542 5.28125 40.7227 5.28125ZM22.1602 19.6494H19.0947V5.63086H22.1602V19.6494ZM29.79 19.6494H26.7246V0.289062H29.79V19.6494ZM40.7227 7.98047C39.4768 7.98047 38.4833 8.43522 37.7432 9.34473C37.0229 10.2348 36.6621 11.3286 36.6621 12.625C36.6622 13.9406 37.0229 15.0536 37.7432 15.9629C38.4833 16.8529 39.4769 17.2979 40.7227 17.2979C41.9881 17.2978 42.9812 16.8528 43.7021 15.9629C44.4415 15.0536 44.8114 13.9406 44.8115 12.625C44.8115 11.3286 44.4415 10.2348 43.7021 9.34473C42.9812 8.43531 41.9882 7.98056 40.7227 7.98047ZM20.6133 0.144531C21.1386 0.144558 21.5858 0.328708 21.9561 0.696289C22.3257 1.06395 22.5107 1.50879 22.5107 2.03125C22.5107 2.55371 22.3257 2.99855 21.9561 3.36621C21.5858 3.73378 21.1386 3.91794 20.6133 3.91797C20.107 3.91797 19.6583 3.73387 19.2695 3.36621C18.8994 2.99861 18.7148 2.55358 18.7148 2.03125C18.7148 1.50893 18.8994 1.06389 19.2695 0.696289C19.6583 0.328628 20.107 0.144531 20.6133 0.144531Z" fill="var(--fill-0, #1D293D)"/>
<path d="M7.71094 0C10.7098 3.36967e-05 13.1445 0.89965 15.0137 2.69922L13.0566 5.22461C11.577 3.75397 9.69753 3.01855 7.41895 3.01855C6.40608 3.01856 5.59761 3.24146 4.99414 3.68652C4.41003 4.11218 4.1182 4.69261 4.11816 5.42773C4.11816 5.9115 4.32276 6.31848 4.73145 6.64746C5.15995 6.97634 5.70569 7.24706 6.36719 7.45996C7.02933 7.65341 7.75953 7.84659 8.55762 8.04004C9.37568 8.23359 10.1842 8.47537 10.9824 8.76562C11.8005 9.03654 12.5399 9.37583 13.2021 9.78223C13.8642 10.1885 14.4 10.7491 14.8086 11.4648C15.2371 12.1808 15.4521 13.0327 15.4521 14.0195C15.4521 15.761 14.8185 17.1932 13.5527 18.3154C12.287 19.4377 10.4075 19.999 7.91504 19.999C4.56577 19.9989 1.92789 18.9729 0 16.9219L1.89844 14.3096C3.57285 16.0898 5.62782 16.9805 8.06152 16.9805C9.36613 16.9804 10.34 16.7187 10.9824 16.1963C11.6446 15.6739 11.9756 15.0548 11.9756 14.3389C11.9756 13.6037 11.5858 13.0233 10.8076 12.5977C10.0285 12.1526 9.08417 11.8043 7.97363 11.5527C6.86385 11.3012 5.74485 11.0006 4.61523 10.6523C3.50533 10.3041 2.56038 9.71385 1.78125 8.88184C1.0023 8.0498 0.613296 6.97579 0.613281 5.66016C0.613281 4.03472 1.26564 2.69025 2.57031 1.62598C3.89483 0.542348 5.60801 0 7.71094 0ZM40.7227 5.28125C42.923 5.28134 44.6851 5.98712 46.0088 7.39941C47.3333 8.81196 47.9961 10.5545 47.9961 12.625C47.996 14.7146 47.3332 16.4654 46.0088 17.8779C44.6851 19.2904 42.9231 19.997 40.7227 19.9971C38.5418 19.9971 36.7894 19.2905 35.4648 17.8779C34.1411 16.4461 33.4786 14.6952 33.4785 12.625C33.4785 10.5545 34.141 8.81196 35.4648 7.39941C36.7893 5.98706 38.542 5.28125 40.7227 5.28125ZM22.1602 19.6494H19.0947V5.63086H22.1602V19.6494ZM29.79 19.6494H26.7246V0.289062H29.79V19.6494ZM40.7227 7.98047C39.4768 7.98047 38.4833 8.43522 37.7432 9.34473C37.0229 10.2348 36.6621 11.3286 36.6621 12.625C36.6622 13.9406 37.0229 15.0536 37.7432 15.9629C38.4833 16.8529 39.4769 17.2979 40.7227 17.2979C41.9881 17.2978 42.9812 16.8528 43.7021 15.9629C44.4415 15.0536 44.8114 13.9406 44.8115 12.625C44.8115 11.3286 44.4415 10.2348 43.7021 9.34473C42.9812 8.43531 41.9882 7.98056 40.7227 7.98047ZM20.6133 0.144531C21.1386 0.144558 21.5858 0.328708 21.9561 0.696289C22.3257 1.06395 22.5107 1.50879 22.5107 2.03125C22.5107 2.55371 22.3257 2.99855 21.9561 3.36621C21.5858 3.73378 21.1386 3.91794 20.6133 3.91797C20.107 3.91797 19.6583 3.73387 19.2695 3.36621C18.8994 2.99861 18.7148 2.55358 18.7148 2.03125C18.7148 1.50893 18.8994 1.06389 19.2695 0.696289C19.6583 0.328628 20.107 0.144531 20.6133 0.144531Z" fill="url(#paint0_linear_10729_68230)" fill-opacity="0.1"/>
</g>
<defs>
<linearGradient id="paint0_linear_10729_68230" x1="6.74945" y1="-0.624969" x2="15.9918" y2="29.0974" gradientUnits="userSpaceOnUse">
<stop stop-color="white"/>
<stop offset="1" stop-color="white" stop-opacity="0"/>
</linearGradient>
</defs>
</svg>
